<svg xmlns="http://www.w3.org/2000/svg" viewBox="0 0 841.53 109.43">
    <defs>
        <style>
            .cls-1{fill:#fff;}
        </style>
    </defs>
    <title>
        Armadan8
    </title>
    <g id="Lager_2" data-name="Lager 2">
        <path d="M74.64,83.62l-42.21,0-8.89,26.06H.16L40,2.94H67.29l40,106.68H83.59ZM69,67.15,58.55,37l-5-16.17h-.34L48.58,36.7,38.2,67.14Z" class="cls-1" transform="translate(-0.16 -1.94)"/>
        <path d="M192.17,109.53,166.48,68.65H146l0,40.87H123.43L123.37,2.82l48.16,0q18.39,0,29.06,8.63T211.28,35q0,11.64-5.94,19.33t-17,10.9l29.49,44.33ZM146,51.66h23q9.6,0,14.31-3.81T188,36q0-7.87-4.73-11.72t-14.32-3.78h-23Z" class="cls-1" transform="translate(-0.16 -1.94)"/>
        <path d="M354.92,109.41H334.37l0-55.65,1-31.22H335l-30.28,86.89H286L255.83,22.59h-.34l1.2,31.23,0,55.64H236L236,2.7h33.11l19.73,58.22,7,24.09h.33l7.07-23.95,19.54-58.4h32.12Z" class="cls-1" transform="translate(-0.16 -1.94)"/>
        <path d="M445.63,83.29H403.38l-9,26.09H371L410.87,2.57h27.31l40,106.71H454.55ZM440,66.79,429.53,36.72l-5-16.17h-.33L419.55,36.4,409.16,66.82Z" class="cls-1" transform="translate(-0.16 -1.94)"/>
        <path d="M699,83.08H656.81l-8.92,26.08H624.55L664.37,2.38h27.32l40,106.71H708ZM693.37,66.6,682.93,36.52l-5-16.17h-.24L673,36.24l-10.4,30.43Z" class="cls-1" transform="translate(-0.16 -1.94)"/>
        <path d="M841.69,109h-26.2L777.23,46.24l-9.45-17.46h-.17l.68,18.44,0,61.79h-20.5L747.76,2.26h26L812,64.82l9.45,17.63h.33L821.12,64l0-61.78H841.6Z" class="cls-1" transform="translate(-0.16 -1.94)"/>
    </g>
    <g id="Lager_3" data-name="Lager 3">
        <path d="M650.76,2c-6.08,11.32-10.67,19.56-12,21.89-1.82,3.21-3.72,6.49-3.72,6.49l-.22.39q-1.53,2.64-3.07,5.28a1.18,1.18,0,0,0-.29.8c.07.38.42.47.6.76s-.09.95-.75,2.3c0,0-.87,1.75-1.77,3.94v0c-.27.68-.46,1.17-.5,1.29a14.48,14.48,0,0,1-.69,1.49c-.33.66-.82,1.73-1.51,3.48h0s-.77,1.74-1.7,3.5c-3,5.68-7.85,13.77-7.85,13.77-5.22,8.69-5.79,9.59-6.39,10.5-1.62,2.48-3.41,5.21-5.87,8.43a67.8,67.8,0,0,1-8.78,10,57,57,0,0,1-20,11.28c-6.66,2.23-12,2.73-18,3.3a109.56,109.56,0,0,1-14.09.4c-6.34-.23-12.2-.49-19.11-2.92-2.4-.84-4.4-1.76-5.48-2.26a72.42,72.42,0,0,1-10.85-6.25A73.34,73.34,0,0,1,500,92.8a96.33,96.33,0,0,1-7.38-8.11c-3.24-3.88-6.44-7.78-9.47-11.81A100.81,100.81,0,0,1,476,61.73c-.92-1.61-1.75-3.28-2.66-4.89a6.37,6.37,0,0,1,3.3-9.37,39.33,39.33,0,0,1,7.56-3.32c1.93-.61,1.77-.43,6.73-1.78,3.14-.85,3-.86,4.61-1.28,3.23-.82,5.75-1.25,7.69-1.59,2.35-.4,4.15-.63,7.64-1.07,10.19-1.3,13-1.31,13.93-1.3.47,0,2.24-.09,4,0,1.52.12,3.06.07,4.59.08,4.67,0,9.3.39,13.93.85a168.88,168.88,0,0,1,19.35,3.3c1.8.39,3.66.58,6.18,1.22,2,.51,2.61.78,7.89,2.41,2.49.76,3.73,1.14,4.88,1.46a48.5,48.5,0,0,0,7.9,1.81,29.44,29.44,0,0,0,6.5.18c.93-.08,2-.27,4.25-.65a16,16,0,0,0,3.75-.91,11.8,11.8,0,0,0,2.38-1.29c.26-.2.65-.49,1.15-1a19.87,19.87,0,0,0,2.87-3.45c2-2.82,1.54-2.36,2.24-3.29,1.52-2,2.12-2.47,3.08-3.89.31-.47.72-.87,1-1.33s.7-1,1-1a1.77,1.77,0,0,0,.45.17.84.84,0,0,0,.3,0c.24-.1.35-.37.48-.6l5.62-10c1.59-2.82,3.62-6.84,8.23-14.6,1.21-2,2.22-3.67,2.9-4.77h4.72C646.61,2,648.69,2,650.76,2Z" class="cls-1" transform="translate(-0.16 -1.94)"/>
        <path d="M624.75,38.9" class="cls-1" transform="translate(-0.16 -1.94)"/>
    </g>
</svg>
